<?xml version="1.0" standalone="no"?>
<!DOCTYPE svg PUBLIC "-//W3C//DTD SVG 20010904//EN"
 "http://www.w3.org/TR/2001/REC-SVG-20010904/DTD/svg10.dtd">
<svg version="1.0" xmlns="http://www.w3.org/2000/svg"
 width="819.000000pt" height="214.000000pt" viewBox="0 0 819.000000 214.000000"
 preserveAspectRatio="xMidYMid meet">

<g transform="translate(0.000000,214.000000) scale(0.100000,-0.100000)"
fill="#000000" stroke="none">
<path d="M1080 1961 c-69 -22 -112 -44 -173 -88 -46 -34 -157 -156 -157 -173
0 -4 33 6 73 23 59 26 90 32 177 37 l105 7 -97 1 c-54 1 -109 -3 -125 -9 -51
-21 -98 -42 -107 -47 -6 -3 1 9 13 27 18 25 26 30 32 19 7 -10 9 -11 9 0 0 9
7 11 20 7 10 -3 29 -1 40 5 27 15 165 14 238 -1 64 -13 177 -68 177 -86 0 -6
23 -28 50 -49 28 -21 104 -89 169 -152 131 -124 200 -167 294 -182 112 -19
244 42 326 150 11 14 -7 0 -40 -31 -71 -67 -123 -95 -196 -107 -71 -11 -148 5
-219 46 -58 33 -91 62 -71 62 6 0 13 -4 17 -10 3 -5 12 -7 20 -3 10 3 13 1 10
-9 -4 -10 5 -20 27 -29 18 -8 36 -13 41 -11 4 1 7 -3 7 -9 0 -6 7 -8 16 -5 8
3 12 2 9 -4 -3 -6 -2 -10 4 -10 5 0 12 8 14 18 4 16 5 16 6 0 1 -19 16 -24 25
-9 4 5 0 12 -6 14 -8 4 -7 6 4 6 9 1 19 -5 21 -11 3 -7 6 -3 6 10 1 12 6 22
11 22 6 0 10 7 10 15 0 13 4 14 21 5 22 -12 54 4 43 22 -3 5 -11 5 -19 -2 -11
-9 -12 -7 -8 9 7 26 15 26 30 2 10 -16 8 -22 -8 -37 -10 -9 -29 -18 -42 -19
-12 -1 -20 -6 -19 -11 2 -5 9 -7 15 -5 7 2 22 3 35 3 12 -1 22 4 22 11 0 8 4
7 10 -3 8 -11 9 -8 4 13 -4 18 -2 27 6 27 9 0 10 3 1 14 -9 11 -23 76 -16 76
1 0 19 -7 38 -15 20 -8 47 -15 59 -14 13 0 1 6 -25 13 -27 7 -63 24 -80 36
l-32 23 20 -23 c18 -21 18 -23 2 -17 -11 4 -16 3 -12 -3 3 -6 -1 -10 -10 -10
-11 0 -15 5 -11 15 3 8 0 15 -7 15 -7 0 -17 10 -22 23 -7 14 -17 21 -30 19
-15 -2 -17 -1 -6 7 11 7 8 12 -15 25 -16 8 -25 15 -20 16 15 0 -47 61 -73 71
-13 5 -21 12 -17 16 9 9 -44 63 -63 63 -8 0 -11 3 -8 7 4 3 -12 23 -36 44 -23
21 -37 39 -31 39 7 0 59 -45 115 -101 193 -186 225 -214 89 -75 -136 138 -229
215 -307 255 -101 51 -270 65 -373 32z m263 -5 c68 -16 142 -50 186 -84 21
-17 22 -20 6 -26 -11 -4 -18 0 -22 12 -5 22 -90 64 -178 88 -104 29 -274 5
-361 -52 -13 -9 -21 -20 -18 -26 3 -5 -2 -8 -12 -6 -11 2 -18 -2 -17 -9 2 -8
-4 -10 -13 -6 -14 5 -13 9 7 25 105 83 278 117 422 84z m-475 -145 c-20 -26
-48 -47 -48 -36 0 5 61 65 67 65 2 0 -6 -13 -19 -29z m573 -222 c35 -32 61
-58 57 -59 -4 0 -32 21 -61 48 -29 26 -68 60 -87 75 -34 27 -34 28 -4 11 17
-9 59 -43 95 -75z m279 35 c0 -8 -4 -12 -10 -9 -5 3 -10 10 -10 16 0 5 5 9 10
9 6 0 10 -7 10 -16z m37 -11 c0 -9 -4 -10 -14 -2 -7 6 -13 12 -13 14 0 1 6 2
13 2 8 0 14 -6 14 -14z m93 -79 c0 -2 -9 -4 -20 -4 -11 0 -20 4 -20 9 0 5 9 7
20 4 11 -3 20 -7 20 -9z m-241 -109 c6 -14 -82 65 -93 84 -5 9 13 -4 40 -29
27 -24 51 -49 53 -55z m321 55 c0 -5 -2 -10 -4 -10 -3 0 -8 5 -11 10 -3 6 -1
10 4 10 6 0 11 -4 11 -10z m-40 -4 c0 -11 -19 -15 -25 -6 -3 5 1 10 9 10 9 0
16 -2 16 -4z"/>
<path d="M1145 1747 c22 -8 64 -26 93 -41 30 -15 56 -25 59 -22 7 7 -126 66
-162 72 -23 3 -21 1 10 -9z"/>
<path d="M920 1579 c41 -6 100 -20 130 -33 61 -24 175 -94 167 -102 -3 -3 -27
10 -54 29 -198 143 -461 112 -660 -76 -29 -28 -53 -47 -53 -44 0 3 21 27 48
52 65 63 170 124 261 152 42 13 58 21 37 17 -119 -18 -262 -107 -366 -226 -39
-45 -70 -85 -70 -91 0 -5 19 14 41 42 23 29 44 49 47 47 3 -3 -2 -14 -11 -24
-10 -10 -14 -22 -10 -25 3 -4 -1 -7 -10 -7 -9 0 -17 -5 -17 -11 0 -6 3 -9 8
-7 116 59 186 78 282 78 146 -1 262 -58 429 -216 164 -153 243 -197 372 -208
l64 -6 -77 14 c-121 22 -194 61 -302 164 -165 157 -232 203 -356 243 -30 10
-45 18 -34 18 36 1 165 -57 223 -101 31 -23 94 -79 141 -123 142 -136 233
-185 348 -186 71 -1 196 36 185 54 -3 7 -3 9 2 5 12 -11 45 11 39 26 -4 9 3
14 21 14 25 0 25 -1 9 -20 -28 -30 -80 -59 -142 -78 -31 -10 -49 -19 -40 -19
31 -2 117 36 162 71 33 25 43 39 44 63 1 37 -22 65 -49 58 -12 -3 -19 0 -19 8
0 11 -2 11 -10 -1 -7 -11 -10 -12 -10 -2 0 10 -12 12 -47 8 -33 -3 -42 -2 -28
4 18 8 17 9 -10 11 -16 1 -38 3 -47 3 -9 0 -15 3 -12 8 3 4 1 8 -3 8 -5 0 -35
15 -66 34 -30 19 -59 31 -63 27 -4 -3 -4 -1 0 6 3 6 0 15 -8 20 -19 10 -187
175 -184 179 2 1 44 -37 94 -85 144 -141 236 -190 364 -196 l75 -4 -80 9
c-123 14 -195 55 -340 191 -184 172 -278 225 -418 233 l-72 5 75 -10z m-267
-216 c-7 -2 -21 -2 -30 0 -10 3 -4 5 12 5 17 0 24 -2 18 -5z m95 0 c-10 -2
-28 -2 -40 0 -13 2 -5 4 17 4 22 1 32 -1 23 -4z m-196 -19 c-29 -7 -66 -21
-82 -29 -39 -20 -53 -18 -15 2 45 25 97 42 125 42 14 0 2 -6 -28 -15z m1078
-274 c0 -5 -5 -10 -11 -10 -5 0 -7 5 -4 10 3 6 8 10 11 10 2 0 4 -4 4 -10z
m34 -65 c3 -8 1 -15 -4 -15 -6 0 -10 7 -10 15 0 8 2 15 4 15 2 0 6 -7 10 -15z"/>
<path d="M2190 1544 c0 -13 -63 -54 -96 -63 -28 -7 -28 -8 -6 -13 15 -4 32 1
51 18 16 13 33 24 39 24 11 0 25 30 17 38 -3 3 -5 1 -5 -4z"/>
<path d="M2792 1498 c-13 -13 -16 -85 -6 -112 5 -14 34 -16 215 -16 133 0 209
4 209 10 0 6 -74 9 -207 8 l-208 -3 -3 46 c-2 30 2 50 11 58 11 8 96 11 318 9
l304 -3 3 -35 c3 -31 -11 -55 -106 -190 -59 -85 -158 -229 -220 -320 l-111
-165 217 -5 217 -5 3 -62 3 -63 -321 0 -320 0 0 49 c0 47 8 61 206 356 114
169 202 306 196 304 -6 -2 -86 -116 -178 -254 -92 -137 -182 -272 -201 -299
-28 -41 -33 -57 -33 -107 l0 -59 330 0 331 0 -3 73 -3 72 -213 3 -212 2 62 93
c34 50 131 192 215 315 146 211 154 225 151 265 l-3 42 -315 3 c-237 2 -319
-1 -328 -10z"/>
<path d="M4827 1504 c-4 -4 -7 -200 -7 -436 l0 -428 85 0 85 0 0 198 c0 110 5
214 11 236 21 75 79 108 151 87 32 -10 43 -20 59 -54 16 -37 19 -67 19 -254 0
-116 4 -214 9 -217 5 -3 43 -3 85 1 l76 6 0 216 c0 302 -21 370 -131 429 -38
21 -54 23 -126 20 -70 -4 -86 -8 -117 -31 l-35 -28 -3 128 -3 128 -75 3 c-42
1 -79 0 -83 -4z m151 -143 l3 -132 32 24 c18 14 50 30 71 37 46 15 143 7 185
-14 38 -20 87 -77 99 -118 6 -18 12 -140 15 -270 l3 -238 -73 0 -73 0 0 210
c0 222 -5 256 -48 294 -30 26 -101 32 -141 11 -61 -31 -71 -75 -73 -310 l-1
-205 -73 0 -74 0 0 423 0 422 72 -2 73 -1 3 -131z"/>
<path d="M6548 1504 c-5 -4 -8 -200 -8 -436 l0 -428 189 0 c248 0 296 13 386
103 71 71 99 134 117 259 13 92 2 192 -32 283 -30 80 -113 163 -196 196 -53
21 -79 23 -254 27 -107 2 -198 0 -202 -4z m444 -33 c70 -27 151 -98 182 -160
77 -153 62 -395 -31 -518 -47 -61 -55 -68 -133 -105 -65 -31 -66 -32 -262 -36
l-198 -4 0 419 c0 231 2 422 4 424 3 2 89 4 193 3 168 -1 194 -4 245 -23z"/>
<path d="M6700 1074 l0 -307 98 6 c108 5 157 23 203 74 51 54 63 91 67 205 5
130 -12 191 -71 255 -49 53 -109 73 -219 73 l-78 0 0 -306z m181 282 c31 -7
70 -23 87 -35 107 -76 125 -349 29 -458 -48 -55 -96 -73 -199 -73 l-88 0 0
290 0 290 58 0 c31 0 82 -6 113 -14z"/>
<path d="M7330 1503 c-1 -20 -1 -830 -1 -846 1 -18 14 -18 239 -15 225 3 239
4 285 27 116 57 166 202 110 316 -23 45 -62 83 -100 96 -18 6 -33 14 -33 17 1
4 15 16 33 27 40 25 77 97 77 150 0 95 -43 165 -128 206 -44 22 -62 23 -264
27 -120 2 -218 0 -218 -5z m470 -30 c74 -34 130 -113 130 -186 0 -78 -52 -159
-110 -172 -32 -7 -41 -25 -12 -25 9 0 40 -13 68 -30 66 -37 94 -90 94 -176 0
-72 -29 -135 -80 -175 -59 -47 -130 -59 -352 -59 l-198 0 0 423 0 422 208 -1
c187 0 211 -2 252 -21z"/>
<path d="M7490 1264 l0 -129 102 5 c114 6 140 16 168 63 24 38 25 78 5 117
-23 44 -62 59 -174 66 l-101 7 0 -129z m220 88 c47 -23 70 -83 49 -127 -27
-54 -61 -70 -165 -73 l-94 -4 0 111 0 111 88 0 c63 0 97 -5 122 -18z"/>
<path d="M7488 1023 c-2 -5 -2 -63 0 -130 l4 -123 98 0 c127 0 155 6 196 45
30 28 34 39 34 81 0 99 -57 133 -222 134 -59 0 -108 -3 -110 -7z m248 -22 c52
-24 74 -55 74 -105 0 -31 -7 -45 -34 -71 -41 -38 -69 -45 -187 -45 l-89 0 0
120 0 120 98 0 c73 0 107 -5 138 -19z"/>
<path d="M1967 1425 c3 -8 9 -12 14 -9 12 7 11 11 -5 17 -10 4 -13 1 -9 -8z"/>
<path d="M2000 1396 c0 -2 8 -10 18 -17 15 -13 16 -12 3 4 -13 16 -21 21 -21
13z"/>
<path d="M1990 1359 c0 -5 5 -7 10 -4 6 3 10 8 10 11 0 2 -4 4 -10 4 -5 0 -10
-5 -10 -11z"/>
<path d="M1960 1350 c0 -5 5 -10 11 -10 5 0 7 5 4 10 -3 6 -8 10 -11 10 -2 0
-4 -4 -4 -10z"/>
<path d="M1866 1341 c-19 -7 -19 -8 0 -13 13 -3 21 0 21 8 0 8 -1 14 -1 13 -1
0 -10 -4 -20 -8z"/>
<path d="M1926 1338 c3 -5 10 -6 15 -3 13 9 11 12 -6 12 -8 0 -12 -4 -9 -9z"/>
<path d="M3640 1293 c-64 -23 -141 -104 -169 -178 -32 -85 -27 -235 10 -315
34 -72 89 -125 158 -151 71 -26 215 -24 271 5 60 31 130 108 130 144 0 11 -76
32 -115 32 -15 0 -40 -11 -55 -24 -57 -47 -151 -41 -207 13 -18 17 -43 76 -43
103 0 4 98 9 218 10 l217 3 -1 81 c-1 64 -6 92 -24 130 -33 67 -96 127 -155
147 -61 21 -175 21 -235 0z m216 -8 c102 -30 167 -113 184 -234 17 -119 33
-111 -216 -111 l-214 0 0 -25 c0 -64 58 -136 121 -150 48 -11 116 4 149 32 30
25 32 25 90 13 33 -7 60 -17 60 -22 0 -4 -24 -33 -52 -62 -67 -68 -135 -92
-242 -83 -183 16 -285 146 -274 353 8 156 92 270 218 295 60 12 124 10 176 -6z"/>
<path d="M3678 1164 c-16 -8 -37 -32 -48 -54 -36 -71 -38 -70 130 -70 l150 0
-6 28 c-16 71 -72 112 -149 112 -27 -1 -62 -8 -77 -16z m152 -9 c30 -15 60
-61 60 -90 0 -13 -20 -15 -135 -15 -74 0 -135 2 -135 5 0 3 9 24 21 46 32 64
122 89 189 54z"/>
<path d="M4388 1301 c-15 -5 -43 -21 -62 -36 l-36 -27 0 31 0 31 -80 0 -80 0
2 -447 3 -448 60 -3 c110 -6 105 -12 105 142 l0 133 48 -24 c40 -21 58 -24
122 -21 120 6 189 52 239 158 24 50 26 66 26 185 0 115 -3 135 -23 176 -27 55
-80 112 -125 136 -36 18 -158 27 -199 14z m207 -36 c97 -56 143 -173 131 -335
-14 -192 -117 -295 -283 -285 -62 4 -93 14 -130 41 l-23 16 0 -141 0 -141 -75
0 -75 0 0 435 0 435 70 0 70 0 0 -35 c0 -38 10 -44 31 -19 14 17 59 42 99 55
46 15 137 3 185 -26z"/>
<path d="M4362 1160 c-48 -29 -73 -93 -75 -188 -1 -94 14 -143 56 -178 28 -23
37 -26 93 -22 72 4 97 21 125 83 28 61 26 188 -4 246 -39 75 -126 101 -195 59z
m143 -14 c47 -31 73 -129 61 -229 -6 -42 -15 -64 -40 -93 -28 -33 -39 -38 -87
-41 -96 -8 -139 48 -139 185 0 61 5 87 23 122 37 74 117 99 182 56z"/>
<path d="M6334 1296 c-17 -8 -40 -25 -51 -40 -28 -35 -36 -33 -29 9 l7 35 -86
0 -85 0 2 -332 3 -333 65 -1 c107 -2 98 -21 102 209 3 221 9 245 70 290 26 20
94 27 138 16 12 -3 15 10 15 76 l0 80 -60 2 c-34 2 -73 -3 -91 -11z m144 -69
l3 -67 -53 5 c-40 5 -61 2 -88 -12 -77 -40 -102 -128 -99 -356 l1 -142 -70 -3
-71 -3 0 321 -1 320 74 0 74 0 -6 -45 c-2 -25 -1 -45 2 -45 4 0 19 14 34 31
36 43 96 70 152 67 l45 -3 3 -68z"/>
<path d="M5427 1293 c-5 -9 6 -42 87 -263 151 -408 149 -402 102 -457 -19 -21
-35 -28 -77 -33 l-54 -5 0 -65 0 -65 62 -3 c72 -3 130 10 165 38 31 24 88 131
121 230 14 41 65 181 112 310 48 129 92 248 97 263 6 15 8 31 4 34 -3 3 -8 0
-10 -8 -7 -22 -55 -154 -103 -284 -24 -66 -67 -185 -95 -265 -69 -194 -103
-257 -158 -285 -35 -18 -112 -27 -155 -19 l-36 6 3 52 3 51 44 3 c58 4 89 27
112 78 18 42 18 43 -6 106 -45 119 -205 565 -205 571 0 4 33 7 74 7 l75 0 71
-217 c40 -120 75 -223 79 -230 3 -6 40 91 80 217 l75 229 80 4 81 3 -86 2 -85
2 -68 -212 c-38 -117 -69 -217 -71 -223 -1 -5 -8 10 -14 34 -7 24 -40 124 -73
223 l-60 178 -84 0 c-45 0 -85 -3 -87 -7z"/>
<path d="M1885 1214 c-22 -13 -60 -31 -85 -39 -32 -11 -36 -14 -14 -11 40 6
144 54 144 66 0 12 4 13 -45 -16z"/>
<path d="M583 1180 c49 -5 96 -14 105 -20 12 -7 4 -8 -28 -2 -84 14 -201 6
-259 -17 -29 -12 -56 -20 -58 -17 -6 6 103 46 130 47 17 1 18 2 4 6 -39 10
-184 -57 -261 -121 l-30 -25 37 4 c20 1 40 -1 43 -6 3 -5 -12 -9 -33 -9 -21 0
-43 -4 -50 -8 -6 -4 39 -7 100 -7 93 -1 122 -5 170 -24 103 -41 231 -136 390
-290 195 -188 260 -232 389 -267 79 -21 207 -22 273 -2 28 9 81 30 119 47 38
17 70 31 72 31 8 0 4 -39 -5 -44 -4 -3 -6 -18 -4 -33 3 -21 2 -24 -5 -14 -9
12 -16 10 -46 -13 -20 -15 -34 -32 -30 -37 3 -5 1 -8 -4 -7 -5 2 -38 -17 -73
-42 -62 -44 -119 -70 -149 -69 -8 0 -1 6 15 14 17 8 21 13 10 10 -11 -2 -40
-9 -65 -14 -76 -18 -156 -13 -239 14 -16 5 -21 4 -17 -4 4 -6 15 -11 25 -11 9
0 22 -5 29 -12 11 -11 118 -13 192 -2 31 4 33 3 11 -6 -41 -18 -193 -19 -214
-1 -9 8 -19 12 -22 9 -9 -8 96 -76 144 -93 49 -17 111 -20 111 -5 0 6 17 10
37 10 91 0 310 110 307 154 -1 8 3 13 8 10 12 -8 48 24 44 39 -2 7 -1 9 1 5 2
-4 12 -4 21 -1 26 9 -35 -53 -103 -104 -72 -55 -166 -100 -237 -113 l-53 -9
53 4 c62 5 135 36 219 93 76 51 235 218 325 340 78 105 198 298 198 316 -1 6
-10 -6 -21 -26 -11 -21 -21 -38 -24 -38 -2 0 -3 15 -1 34 2 31 0 34 -16 25
-20 -11 -23 -25 -8 -34 6 -4 2 -19 -12 -38 -13 -18 -24 -35 -24 -39 -1 -5 -2
-12 -3 -18 0 -5 -10 -1 -21 10 -12 12 -18 26 -15 33 4 7 -1 3 -9 -8 -9 -11
-22 -27 -30 -36 -7 -9 -11 -29 -8 -47 5 -37 -2 -41 -19 -11 -9 17 -8 20 2 14
8 -5 10 -4 5 4 -5 7 -16 9 -28 5 -13 -4 -18 -2 -14 4 3 5 -1 13 -10 16 -13 5
-15 2 -11 -15 4 -16 3 -19 -6 -10 -6 6 -25 11 -42 11 -23 0 -26 -3 -15 -10 8
-5 11 -10 7 -10 -4 0 -18 7 -31 15 -21 14 -28 14 -72 -1 -27 -9 -54 -20 -60
-25 -7 -6 -18 -8 -25 -7 -9 2 -14 -5 -13 -18 0 -13 -7 -21 -20 -22 -12 0 -16
2 -10 6 6 4 13 14 16 23 6 15 0 15 -59 2 -37 -7 -74 -11 -84 -8 -9 3 -21 0
-25 -6 -4 -7 -3 -9 2 -6 6 3 16 2 23 -2 7 -5 1 -8 -19 -9 -17 0 -28 3 -25 8 2
4 -28 16 -69 25 -118 28 -216 91 -364 236 -136 134 -172 163 -240 198 -24 12
-42 25 -39 28 9 8 121 -63 178 -115 29 -26 94 -87 144 -137 189 -188 351 -240
579 -186 119 29 345 115 332 128 -2 2 -23 -5 -45 -17 -129 -65 -329 -120 -442
-120 -159 0 -255 49 -436 222 -221 211 -315 265 -473 273 l-85 4 88 -9z m-275
-83 c-34 -27 -88 -60 -88 -53 0 6 102 76 110 76 3 -1 -7 -11 -22 -23z m55 -74
c-7 -2 -21 -2 -30 0 -10 3 -4 5 12 5 17 0 24 -2 18 -5z m44 -9 c-3 -3 -12 -4
-19 -1 -8 3 -5 6 6 6 11 1 17 -2 13 -5z m73 -26 c10 -6 7 -7 -10 -2 -14 3 -32
11 -40 16 -10 6 -7 7 10 2 14 -3 32 -11 40 -16z m64 -29 c20 -12 36 -23 36
-25 0 -5 -44 18 -70 35 -27 19 -2 11 34 -10z m113 -81 c3 -7 -8 -2 -25 10 -17
13 -35 28 -39 34 -3 7 8 2 25 -10 17 -13 35 -28 39 -34z m83 -65 c0 -8 -36 16
-55 38 -16 19 -13 18 18 -5 20 -16 37 -30 37 -33z m1390 -3 c0 -5 -37 -65 -83
-133 -96 -142 -249 -326 -255 -307 -3 7 7 22 21 32 14 10 25 24 23 31 -1 7 -1
8 2 4 4 -9 42 21 42 34 0 4 12 21 26 36 14 15 35 40 46 55 15 23 16 27 3 22
-12 -5 -15 0 -13 24 1 17 6 28 10 26 5 -3 6 -9 3 -14 -3 -5 -1 -11 5 -15 5 -3
10 3 10 13 0 13 6 19 18 18 9 0 16 5 14 12 -1 8 2 11 8 7 5 -3 10 -1 10 4 0 6
-6 11 -12 12 -10 0 -10 2 0 6 6 2 12 9 12 14 0 6 -5 7 -12 3 -6 -4 -8 -3 -4 4
3 6 2 13 -4 17 -14 9 11 45 32 45 10 0 18 -9 20 -22 3 -20 8 -15 37 30 33 52
41 61 41 42z m-1349 -27 c13 -16 12 -17 -3 -4 -10 7 -18 15 -18 17 0 8 8 3 21
-13z m33 -39 c3 -8 2 -12 -4 -9 -6 3 -10 10 -10 16 0 14 7 11 14 -7z m110
-109 c12 -11 15 -16 6 -11 -18 12 -90 87 -90 95 0 3 15 -10 32 -29 17 -19 41
-44 52 -55z m856 49 c0 -8 -19 -13 -24 -6 -3 5 1 9 9 9 8 0 15 -2 15 -3z m74
0 c9 -3 16 -11 16 -16 0 -6 -6 -5 -15 2 -8 7 -24 10 -35 7 -11 -3 -18 -1 -14
4 6 10 26 12 48 3z m109 -21 c3 -5 -14 -9 -37 -9 -33 -2 -36 0 -16 6 34 11 48
11 53 3z m-40 -64 c-9 -9 -12 -7 -10 9 1 14 5 18 11 12 7 -7 6 -14 -1 -21z
m-906 -43 c32 -23 69 -49 81 -55 13 -7 21 -15 18 -18 -5 -5 -152 93 -162 108
-11 18 7 8 63 -35z m884 27 c10 -11 10 -14 2 -9 -7 4 -13 2 -13 -3 0 -6 6 -11
13 -12 8 0 8 -2 1 -5 -7 -3 -10 -13 -8 -22 3 -9 -3 -22 -14 -29 -15 -9 -19 -8
-19 3 0 7 4 11 9 8 9 -6 11 6 8 54 -2 36 2 39 21 15z m-33 -5 c-5 -15 -35 -19
-35 -4 0 7 9 13 19 13 11 1 18 -3 16 -9z m-234 -93 c-105 -50 -227 -79 -294
-70 -73 10 -173 37 -195 51 -11 8 -15 14 -9 14 5 0 14 -4 20 -9 16 -15 150
-41 214 -41 64 0 150 17 150 30 0 4 12 5 26 2 20 -4 25 -2 19 8 -5 9 -4 11 3
6 6 -4 37 7 69 23 32 17 65 30 73 30 8 0 -26 -20 -76 -44z m89 10 c-3 -9 -8
-14 -10 -11 -3 3 -2 9 2 15 9 16 15 13 8 -4z m144 -21 c-3 -3 -12 -4 -19 -1
-8 3 -5 6 6 6 11 1 17 -2 13 -5z m-57 -14 c0 -5 -2 -10 -4 -10 -3 0 -8 5 -11
10 -3 6 -1 10 4 10 6 0 11 -4 11 -10z m-591 -275 c26 -14 68 -29 92 -34 43 -9
43 -9 9 -10 -32 -1 -160 50 -160 64 0 9 9 6 59 -20z"/>
<path d="M2005 731 c-6 -11 9 -23 19 -14 9 9 7 23 -3 23 -6 0 -12 -4 -16 -9z"/>
<path d="M2030 695 c0 -8 2 -15 4 -15 2 0 6 7 10 15 3 8 1 15 -4 15 -6 0 -10
-7 -10 -15z"/>
<path d="M1831 1110 c-29 -33 -48 -60 -43 -60 5 0 30 27 56 60 26 33 45 60 43
60 -2 0 -27 -27 -56 -60z"/>
<path d="M1821 1137 c-13 -21 -12 -21 5 -5 10 10 16 20 13 22 -3 3 -11 -5 -18
-17z"/>
<path d="M2164 942 c-27 -22 -73 -51 -102 -67 -56 -30 -66 -48 -10 -19 39 19
131 85 136 96 2 5 7 6 12 3 4 -3 10 2 14 10 8 21 5 20 -50 -23z"/>
<path d="M2150 899 c0 -5 5 -7 10 -4 6 3 10 8 10 11 0 2 -4 4 -10 4 -5 0 -10
-5 -10 -11z"/>
<path d="M1968 802 c-16 -9 -28 -20 -28 -25 0 -4 -4 -5 -10 -2 -6 3 -7 -1 -4
-10 6 -14 9 -14 23 -2 9 8 24 13 34 12 14 -3 16 0 7 10 -12 15 3 31 20 20 6
-3 10 -1 10 4 0 16 -21 13 -52 -7z"/>
<path d="M1885 760 c-3 -6 1 -7 9 -4 18 7 21 14 7 14 -6 0 -13 -4 -16 -10z"/>
<path d="M1609 405 c-43 -40 -101 -87 -130 -104 -30 -17 -49 -31 -43 -31 15 0
117 69 171 115 36 30 92 96 81 95 -2 0 -37 -34 -79 -75z"/>
</g>
</svg>
